# xmcd
#
# Track frame offsets: 
#        150
#        20429
#        38296
#        57372
#        77727
#        96718
#        117497
#        133219
#        148476
#        165059
#        186887
#        201085
#
# Disc length: 2918 seconds
#
# Revision: 0
# Processed by: cddbd v1.5.2PL0 Copyright (c) Steve Scherf et al.
# Submitted via: ExactAudioCopy v1.0b6
#
DISCID=a80b640c
DTITLE=Al Green - Lay It Down
DYEAR=2008
DGENRE=R&B
TTITLE0=Lay It Down (featuring Anthony Hamilton)
TTITLE1=Just for Me
TTITLE2=You've Got the Love I Need (featuring Anthony Hamilton)
TTITLE3=No One Like You
TTITLE4=What More Do You Want from Me
TTITLE5=Take Your Time (featuring Corinne Bailey Rae)
TTITLE6=Too Much
TTITLE7=Stay With Me (By the Sea) (featuring John Legend)
TTITLE8=All I Need
TTITLE9=I'm Wild About You
TTITLE10=Standing in the Rain
TTITLE11=Wanna Say
EXTD=
EXTT0=
EXTT1=
EXTT2=
EXTT3=
EXTT4=
EXTT5=
EXTT6=
EXTT7=
EXTT8=
EXTT9=
EXTT10=
EXTT11=
PLAYORDER=
